#!OML:ASF X:\für Bonn\!DataBase\2005_08_11_Bastian_Final\c3d\Bastian.ASF
:FULLY-SPECIFIED
:DEGREES
144
root -1.72795 16.535 -26.0009 157.492 1.72534 -178.899
lowerback 2.89665 -5.51376 2.61716
upperback 8.42557 -6.69785 0.904735
thorax 6.97815 -2.83336 -0.661399
lowerneck 0.160571 2.75854 -10.2627
upperneck 1.6503 3.69329 3.87006
head 0.2185 1.82382 3.03826
rclavicle 7.94145e-014 -2.46493e-014
rhumerus -61.3694 20.8581 -93.0885
rradius 110.23
rwrist 13.0779
rhand -18.3697 7.96704
rfingers 7.12502
rthumb 7.91351 -21.8648
lclavicle 7.94145e-014 -2.46493e-014
lhumerus -9.48958 -40.2167 88.4604
lradius 121.285
lwrist 37.912
lhand -7.70292 -12.8662
lfingers 7.12502
lthumb 18.1947 16.3028
rfemur -14.5917 3.96082 29.3814
rtibia 49.2151
rfoot -182.094 -164.767
rtoes 11.2152
lfemur 17.2854 5.79291 -14.8678
ltibia 73.105
lfoot 1.57165 -1.55199
ltoes -36.66
145
root -1.70438 16.4804 -25.8849 158.013 1.47497 -178.834
lowerback 2.95337 -5.86725 2.10677
upperback 8.16964 -7.19782 1.1348
thorax 6.75311 -3.14194 -0.144561
lowerneck -0.26262 2.81019 -10.0679
upperneck 1.29722 3.79682 3.9128
head 0.174377 1.88387 3.01902
rclavicle -5.71506e-015 -3.26007e-014
rhumerus -60.9442 20.5405 -93.1865
rradius 109.989
rwrist 13.0482
rhand -18.5086 8.25639
rfingers 7.12502
rthumb 7.77943 -21.5805
lclavicle -5.71506e-015 -3.26007e-014
lhumerus -9.19129 -40.503 88.1227
lradius 121.758
lwrist 37.9349
lhand -7.45899 -12.8571
lfingers 7.12502
lthumb 18.4293 16.2899
rfemur -16.1123 3.87174 29.3057
rtibia 49.9375
rfoot -181.523 -164.677
rtoes 11.9586
lfemur 19.0513 5.53462 -15.2572
ltibia 70.6922
lfoot 0.537267 -1.99842
ltoes -36.7756
146
root -1.67794 16.4232 -25.7619 158.49 1.17274 -178.8
lowerback 3.05775 -6.19334 1.58362
upperback 7.95542 -7.65228 1.29694
thorax 6.5529 -3.4212 0.312754
lowerneck -0.711269 2.8222 -9.83594
upperneck 0.9551 3.84982 4.01896
head 0.141709 1.9193 3.01574
rclavicle 9.29318e-015 -5.725e-014
rhumerus -60.4811 20.0519 -93.3945
rradius 109.692
rwrist 13.052
rhand -18.7245 8.66092
rfingers 7.12502
rthumb 7.57103 -21.1836
lclavicle 9.29318e-015 -5.725e-014
lhumerus -8.65495 -40.9372 87.5096
lradius 122.236
lwrist 38.0977
lhand -7.41242 -12.7273
lfingers 7.12502
lthumb 18.4741 16.4154
rfemur -17.5744 3.79745 29.2077
rtibia 50.5961
rfoot -180.939 -164.665
rtoes 12.6959
lfemur 20.7304 5.33377 -15.5617
ltibia 68.3037
lfoot -0.45729 -2.47324
ltoes -36.6652
147
root -1.65 16.3686 -25.6321 158.909 0.801822 -178.734
lowerback 3.25862 -6.52779 1.03853
upperback 7.76868 -8.10868 1.47681
thorax 6.3464 -3.69765 0.809233
lowerneck -1.22468 2.8163 -9.72103
upperneck 0.667206 3.88835 4.19335
head 0.135305 1.94797 3.06021
rclavicle 4.28878e-014 -3.02153e-014
rhumerus -59.9702 19.5001 -93.5489
rradius 109.469
rwrist 13.1047
rhand -18.8477 9.03977
rfingers 7.12502
rthumb 7.45217 -20.809
lclavicle 4.28878e-014 -3.02153e-014
lhumerus -8.10157 -41.3991 86.9282
lradius 122.647
lwrist 38.2196
lhand -7.44851 -12.6148
lfingers 7.12502
lthumb 18.4394 16.5312
rfemur -18.9579 3.6648 29.1413
rtibia 51.2085
rfoot -180.497 -164.74
rtoes 13.0577
lfemur 22.3119 5.12889 -15.7521
ltibia 65.9795
lfoot -1.87622 -3.02761
ltoes -37.3
148
root -1.62053 16.3165 -25.497 159.277 0.413162 -178.7
lowerback 3.4864 -6.8238 0.498788
upperback 7.64594 -8.50734 1.58941
thorax 6.19358 -3.93771 1.23532
lowerneck -1.8545 2.77657 -9.61767
upperneck 0.459171 3.89323 4.48419
head 0.174956 1.96069 3.15064
rclavicle 6.11263e-015 -7.95139e-015
rhumerus -59.3976 18.7542 -93.8514
rradius 109.237
rwrist 13.2434
rhand -18.9988 9.48319
rfingers 7.12502
rthumb 7.30628 -20.3707
lclavicle 6.11263e-015 -7.95139e-015
lhumerus -7.63682 -41.809 86.3693
lradius 122.962
lwrist 38.3616
lhand -7.38333 -12.5558
lfingers 7.12502
lthumb 18.5021 16.5843
rfemur -20.2019 3.59098 29.0694
rtibia 51.6636
rfoot -180.128 -164.932
rtoes 13.1917
lfemur 23.8093 4.96476 -15.8834
ltibia 63.6756
lfoot -3.4018 -3.60348
ltoes -37.2276
149
root -1.59065 16.2353 -25.3472 159.637 -0.033729 -178.665
lowerback 3.76986 -6.04344 0.0561053
upperback 7.48174 -9.09154 1.78207
thorax 5.98801 -4.96352 1.62407
lowerneck -2.53876 2.70045 -9.61192
upperneck 0.34263 3.85694 4.88998
head 0.252929 1.95392 3.30243
rclavicle 6.80837e-015 -1.59028e-014
rhumerus -58.8936 17.819 -94.2636
rradius 109.086
rwrist 13.3929
rhand -19.0705 9.88837
rfingers 7.12502
rthumb 7.23714 -19.9679
lclavicle 6.80837e-015 -1.59028e-014
lhumerus -7.38618 -42.1619 86.0563
lradius 123.091
lwrist 38.4079
lhand -7.1572 -12.6539
lfingers 7.12502
lthumb 18.7196 16.4654
rfemur -21.5082 3.54124 29.0209
rtibia 52.0173
rfoot -179.73 -165.279
rtoes 13.0546
lfemur 25.0698 4.82678 -15.9461
ltibia 61.5509
lfoot -4.97353 -4.18857
ltoes -36.7599
150
root -1.55836 16.1833 -25.1896 159.938 -0.489361 -178.657
lowerback 4.17138 -6.22797 -0.383985
upperback 7.42002 -9.33427 1.78668
thorax 5.77655 -5.11152 1.91541
lowerneck -3.2847 2.56195 -9.53079
upperneck 0.261431 3.74186 5.30554
head 0.361747 1.91041 3.4459
rclavicle -2.31833e-014 -1.59028e-014
rhumerus -58.3365 16.6969 -94.705
rradius 108.893
rwrist 13.5015
rhand -19.2032 10.3237
rfingers 7.12502
rthumb 7.10897 -19.5369
lclavicle -2.31833e-014 -1.59028e-014
lhumerus -7.05497 -42.6274 85.7093
lradius 123.097
lwrist 38.467
lhand -6.87374 -12.7504
lfingers 7.12502
lthumb 18.9923 16.3423
rfemur -22.4887 3.54249 28.9752
rtibia 51.987
rfoot -179.381 -165.705
rtoes 12.305
lfemur 26.2392 4.71312 -15.9916
ltibia 59.3497
lfoot -6.5011 -4.70224
ltoes -36.4586
151
root -1.52517 16.1346 -25.0224 160.214 -0.94953 -178.624
lowerback 4.64004 -6.35525 -0.749899
upperback 7.39524 -9.5088 1.767
thorax 5.55168 -5.22286 2.15186
lowerneck -3.95945 2.39019 -9.51591
upperneck 0.102646 3.58093 5.82568
head 0.43509 1.8484 3.63669
rclavicle -5.42682e-014 2.54444e-014
rhumerus -57.7415 15.4941 -95.1808
rradius 108.779
rwrist 13.5356
rhand -19.2311 10.6168
rfingers 7.12502
rthumb 7.08209 -19.2447
lclavicle -5.42682e-014 2.54444e-014
lhumerus -6.71365 -43.156 85.4027
lradius 123.026
lwrist 38.4612
lhand -6.61544 -12.8397
lfingers 7.12502
lthumb 19.2406 16.2285
rfemur -23.3291 3.80569 28.975
rtibia 51.7412
rfoot -179.003 -166.416
rtoes 11.1268
lfemur 27.1721 4.6337 -15.9552
ltibia 57.3115
lfoot -8.04076 -5.18717
ltoes -36.4238
152
root -1.48998 16.1309 -24.8501 160.475 -1.4138 -178.601
lowerback 5.17445 -6.43807 -1.06069
upperback 7.42307 -9.63287 1.69446
thorax 5.32762 -5.30735 2.31248
lowerneck -4.73712 2.17841 -9.40078
upperneck -0.0416803 3.37484 6.31933
head 0.539279 1.76838 3.80158
rclavicle -4.9398e-014 1.43125e-014
rhumerus -57.0043 14.2814 -95.748
rradius 108.695
rwrist 13.4825
rhand -19.2335 10.7567
rfingers 7.12502
rthumb 7.07976 -19.1049
lclavicle -4.9398e-014 1.43125e-014
lhumerus -6.31764 -43.724 85.0679
lradius 122.858
lwrist 38.4014
lhand -6.32935 -12.8945
lfingers 7.12502
lthumb 19.5157 16.1461
rfemur -23.8356 4.44559 28.9531
rtibia 51.107
rfoot -178.615 -167.436
rtoes 9.62619
lfemur 27.8965 4.56755 -15.9159
ltibia 55.2515
lfoot -9.34286 -5.54947
ltoes -36.2931
153
root -1.45494 16.0964 -24.6614 160.68 -1.86463 -178.569
lowerback 5.8037 -6.48168 -1.35202
upperback 7.50249 -9.71984 1.59992
thorax 5.09842 -5.37684 2.45096
lowerneck -5.48383 1.94642 -9.26014
upperneck -0.243585 3.14212 6.80653
head 0.623878 1.67921 3.95762
rclavicle -2.38821e-014 3.97569e-015
rhumerus -56.141 13.1875 -96.3804
rradius 108.635
rwrist 13.3964
rhand -19.1873 10.6555
rfingers 7.12502
rthumb 7.12437 -19.2046
lclavicle -2.38821e-014 3.97569e-015
lhumerus -5.83015 -44.2924 84.6525
lradius 122.639
lwrist 38.285
lhand -6.07279 -12.933
lfingers 7.12502
lthumb 19.7624 16.0824
rfemur -24.3789 5.35974 28.9207
rtibia 50.3958
rfoot -178.001 -168.682
rtoes 8.07358
lfemur 28.3828 4.4697 -15.8997
ltibia 53.4925
lfoot -10.6088 -5.80521
ltoes -36.0117
154
root -1.41919 16.0691 -24.463 160.884 -2.31405 -178.585
lowerback 6.44029 -6.49841 -1.70087
upperback 7.62407 -9.78477 1.4846
thorax 4.91655 -5.44086 2.59696
lowerneck -6.23469 1.70044 -9.11283
upperneck -0.466377 2.89449 7.29375
head 0.705552 1.58663 4.11196
rclavicle -6.69842e-014 7.95139e-016
rhumerus -55.2438 12.2491 -97.0519
rradius 108.587
rwrist 13.337
rhand -19.1925 10.455
rfingers 7.12502
rthumb 7.11936 -19.4053
lclavicle -6.69842e-014 7.95139e-016
lhumerus -5.07415 -44.8054 84.0003
lradius 122.328
lwrist 38.274
lhand -5.8551 -12.8966
lfingers 7.12502
lthumb 19.9716 16.0971
rfemur -24.8811 6.44563 28.777
rtibia 49.5469
rfoot -177.116 -170.016
rtoes 7.13634
lfemur 28.6265 4.31039 -16.0079
ltibia 51.8973
lfoot -11.7112 -5.96946
ltoes -34.9552
